<svg width="778" height="614" viewBox="0 0 778 614" fill="none" xmlns="http://www.w3.org/2000/svg">
<g clip-path="url(#clip0_3_2)">
<path d="M141.794 72.3341C140.333 72.4954 138.925 72.975 137.669 73.7394C136.413 74.5037 135.34 75.534 134.526 76.7579C133.712 77.9817 133.175 79.3692 132.955 80.8227C132.735 82.2762 132.836 83.7603 133.251 85.1705L104.177 105.947L121.507 112.616L146.46 91.8641C148.783 91.0093 150.711 89.3321 151.88 87.1504C153.049 84.9687 153.377 82.434 152.802 80.0267C152.227 77.6194 150.788 75.5067 148.76 74.0889C146.731 72.6711 144.253 72.0467 141.794 72.3341Z" fill="#FFB8B8"/>
<path d="M139.09 103.629L103.026 139.916C98.0837 144.857 91.5664 147.91 84.6066 148.545L40.0432 152.611C38.4095 152.767 36.7611 152.594 35.1955 152.102C33.6299 151.61 32.1787 150.809 30.9278 149.747C29.1973 148.298 27.9104 146.391 27.2151 144.244C26.5197 142.097 26.4441 139.798 26.9969 137.61C27.5497 135.422 28.7085 133.434 30.3402 131.875C31.9719 130.316 34.0102 129.249 36.2211 128.796L81.7476 119.102L123.196 88.5493C123.772 88.225 124.423 88.057 125.084 88.062C125.746 88.0669 126.394 88.2446 126.965 88.5774L138.237 97.8111C138.915 98.1828 139.46 98.7574 139.795 99.4544C140.13 100.151 140.238 100.936 140.105 101.698C139.973 102.43 139.619 103.105 139.09 103.629Z" fill="#2F2E41"/>
<path d="M571.476 123.13C571.745 120.653 571.244 118.153 570.042 115.97C568.84 113.788 566.996 112.028 564.759 110.931L340.317 1.23372C338.89 0.535452 337.339 0.125132 335.753 0.0262055C334.167 -0.0727209 332.577 0.141675 331.074 0.657156C329.571 1.17264 328.185 1.97911 326.993 3.03052C325.802 4.08194 324.83 5.35769 324.131 6.78496L324.127 6.79339L239.947 179.027C238.542 181.912 238.338 185.236 239.381 188.271C240.423 191.306 242.626 193.804 245.507 195.217L469.948 304.914C472.833 306.319 476.158 306.523 479.192 305.48C482.227 304.438 484.725 302.235 486.138 299.354L570.318 127.121C570.933 125.868 571.325 124.517 571.476 123.13Z" fill="#F2F2F2"/>
<path d="M439.99 505.403H148.766C145.099 505.399 141.584 503.941 138.992 501.348C136.399 498.756 134.941 495.241 134.937 491.574V96.2246C134.941 92.5581 136.399 89.0431 138.992 86.4505C141.584 83.8579 145.099 82.3996 148.766 82.3955H439.99C443.657 82.3996 447.172 83.8579 449.764 86.4505C452.357 89.0431 453.815 92.5581 453.819 96.2246V491.574C453.815 495.241 452.357 498.756 449.764 501.348C447.172 503.941 443.657 505.399 439.99 505.403Z" fill="white"/>
<path d="M226.008 200.285C236.502 200.285 245.008 191.779 245.008 181.285C245.008 170.792 236.502 162.285 226.008 162.285C215.515 162.285 207.008 170.792 207.008 181.285C207.008 191.779 215.515 200.285 226.008 200.285Z" fill="#E6E6E6"/>
<path d="M197.05 233.214C199.735 234.74 202.544 236.035 205.449 237.085L205.962 237.263C211.812 239.317 217.968 240.362 224.168 240.355C225.416 240.355 226.618 240.311 227.74 240.227C230.473 240.059 233.188 239.685 235.863 239.106C237.332 238.786 238.795 238.402 240.212 237.967C240.554 237.866 240.871 237.767 241.218 237.658C246.99 235.787 252.413 232.977 257.27 229.34C256.881 228.603 256.454 227.886 255.991 227.191C253.494 223.376 250.085 220.243 246.072 218.077C242.059 215.91 237.569 214.779 233.008 214.785H223.008C217.734 214.786 212.571 216.303 208.134 219.155C203.697 222.008 200.174 226.075 197.983 230.873C197.633 231.637 197.321 232.419 197.05 233.214Z" fill="#E6E6E6"/>
<path d="M232.456 238.633C231.818 238.68 231.204 238.896 230.676 239.258C233.357 239.091 236.021 238.721 238.647 238.151L232.456 238.633Z" fill="#2F2E41"/>
<path d="M227.16 129.725C214.923 129.726 203.029 133.767 193.323 141.22C183.618 148.673 176.644 159.122 173.484 170.944C170.325 182.766 171.156 195.301 175.849 206.602C180.542 217.903 188.835 227.339 199.44 233.445C202.255 235.075 205.21 236.451 208.27 237.555L208.79 237.735C214.693 239.808 220.904 240.863 227.16 240.855C228.37 240.855 229.58 240.815 230.77 240.725C233.525 240.556 236.262 240.178 238.96 239.595C240.47 239.265 241.95 238.875 243.35 238.445C243.69 238.345 244.01 238.245 244.36 238.135C256.937 234.039 267.64 225.59 274.546 214.309C281.451 203.027 284.107 189.653 282.034 176.589C279.961 163.525 273.297 151.629 263.238 143.039C253.18 134.448 240.387 129.728 227.16 129.725ZM259.4 226.915C254.606 230.614 249.211 233.459 243.45 235.325C243.14 235.425 242.82 235.525 242.5 235.625C241.17 236.035 239.77 236.395 238.33 236.705C235.778 237.262 233.187 237.623 230.58 237.785C229.45 237.865 228.3 237.905 227.16 237.905C221.239 237.909 215.359 236.911 209.77 234.955L209.28 234.785C206.237 233.691 203.304 232.312 200.52 230.665C190.826 224.958 183.218 216.292 178.814 205.94C174.41 195.588 173.442 184.097 176.053 173.154C178.664 162.212 184.716 152.395 193.32 145.148C201.924 137.9 212.625 133.603 223.852 132.888C235.079 132.173 246.239 135.077 255.693 141.175C265.146 147.273 272.395 156.242 276.373 166.765C280.351 177.288 280.849 188.809 277.794 199.636C274.739 210.463 268.292 220.024 259.4 226.915Z" fill="#CCCCCC"/>
<path d="M439.99 505.403H148.766C145.099 505.399 141.584 503.941 138.992 501.348C136.399 498.756 134.941 495.241 134.937 491.574V96.2246C134.941 92.5581 136.399 89.0431 138.992 86.4505C141.584 83.8579 145.099 82.3996 148.766 82.3955H439.99C443.657 82.3996 447.172 83.8579 449.764 86.4505C452.357 89.0431 453.815 92.5581 453.819 96.2246V491.574C453.815 495.241 452.357 498.756 449.764 501.348C447.172 503.941 443.657 505.399 439.99 505.403ZM148.766 84.0224C145.531 84.0261 142.429 85.3128 140.142 87.6004C137.854 89.888 136.567 92.9895 136.564 96.2246V491.574C136.567 494.809 137.854 497.911 140.142 500.198C142.429 502.486 145.531 503.773 148.766 503.776H439.99C443.225 503.773 446.327 502.486 448.614 500.198C450.902 497.911 452.189 494.809 452.192 491.574V96.2246C452.189 92.9895 450.902 89.888 448.614 87.6004C446.327 85.3128 443.225 84.0261 439.99 84.0224L148.766 84.0224Z" fill="#CCCCCC"/>
<path d="M383.613 185.076H301.206C299.477 185.076 297.819 184.389 296.596 183.166C295.374 181.944 294.687 180.285 294.687 178.556C294.687 176.827 295.374 175.169 296.596 173.947C297.819 172.724 299.477 172.037 301.206 172.037H383.613C385.342 172.037 387 172.724 388.222 173.947C389.445 175.169 390.132 176.827 390.132 178.556C390.132 180.285 389.445 181.944 388.222 183.166C387 184.389 385.342 185.076 383.613 185.076Z" fill="#E6E6E6"/>
<path d="M410.505 207.078H301.206C299.477 207.078 297.819 206.391 296.596 205.169C295.374 203.946 294.687 202.288 294.687 200.559C294.687 198.83 295.374 197.172 296.596 195.949C297.819 194.727 299.477 194.04 301.206 194.04H410.505C412.234 194.04 413.892 194.727 415.115 195.949C416.337 197.172 417.024 198.83 417.024 200.559C417.024 202.288 416.337 203.946 415.115 205.169C413.892 206.391 412.234 207.078 410.505 207.078Z" fill="#E6E6E6"/>
<path d="M383.493 291.467H178.251C176.522 291.467 174.864 290.781 173.641 289.558C172.419 288.335 171.732 286.677 171.732 284.948C171.732 283.219 172.419 281.561 173.641 280.338C174.864 279.116 176.522 278.429 178.251 278.429H383.493C385.222 278.429 386.88 279.116 388.102 280.338C389.325 281.561 390.012 283.219 390.012 284.948C390.012 286.677 389.325 288.335 388.102 289.558C386.88 290.781 385.222 291.467 383.493 291.467Z" fill="#E6E6E6"/>
<path d="M410.385 313.47H178.251C176.522 313.47 174.864 312.783 173.641 311.561C172.419 310.338 171.732 308.68 171.732 306.951C171.732 305.222 172.419 303.564 173.641 302.341C174.864 301.118 176.522 300.431 178.251 300.431H410.385C412.114 300.431 413.772 301.118 414.995 302.341C416.217 303.564 416.904 305.222 416.904 306.951C416.904 308.68 416.217 310.338 414.995 311.561C413.772 312.783 412.114 313.47 410.385 313.47Z" fill="#E6E6E6"/>
<path d="M383.493 364.04H178.251C176.522 364.04 174.864 363.354 173.641 362.131C172.419 360.908 171.732 359.25 171.732 357.521C171.732 355.792 172.419 354.134 173.641 352.911C174.864 351.689 176.522 351.002 178.251 351.002H383.493C385.222 351.002 386.88 351.689 388.102 352.911C389.325 354.134 390.012 355.792 390.012 357.521C390.012 359.25 389.325 360.908 388.102 362.131C386.88 363.354 385.222 364.04 383.493 364.04Z" fill="#E6E6E6"/>
<path d="M410.385 386.043H178.251C176.522 386.043 174.864 385.356 173.641 384.134C172.419 382.911 171.732 381.253 171.732 379.524C171.732 377.795 172.419 376.137 173.641 374.914C174.864 373.691 176.522 373.005 178.251 373.005H410.385C412.114 373.005 413.772 373.691 414.995 374.914C416.217 376.137 416.904 377.795 416.904 379.524C416.904 381.253 416.217 382.911 414.995 384.134C413.772 385.356 412.114 386.043 410.385 386.043Z" fill="#E6E6E6"/>
<path d="M383.493 436.614H178.251C176.522 436.614 174.864 435.927 173.641 434.704C172.419 433.481 171.732 431.823 171.732 430.094C171.732 428.365 172.419 426.707 173.641 425.484C174.864 424.262 176.522 423.575 178.251 423.575H383.493C385.222 423.575 386.88 424.262 388.102 425.484C389.325 426.707 390.012 428.365 390.012 430.094C390.012 431.823 389.325 433.481 388.102 434.704C386.88 435.927 385.222 436.614 383.493 436.614Z" fill="#E6E6E6"/>
<path d="M410.385 458.616H178.251C176.522 458.616 174.864 457.929 173.641 456.707C172.419 455.484 171.732 453.826 171.732 452.097C171.732 450.368 172.419 448.71 173.641 447.487C174.864 446.264 176.522 445.578 178.251 445.578H410.385C412.112 445.58 413.769 446.267 414.989 447.49C416.21 448.712 416.896 450.369 416.896 452.097C416.896 453.824 416.21 455.481 414.989 456.704C413.769 457.926 412.112 458.614 410.385 458.616Z" fill="#E6E6E6"/>
<path d="M561.476 236.13C561.745 233.653 561.244 231.153 560.042 228.97C558.84 226.788 556.996 225.028 554.759 223.931L330.317 114.234C328.89 113.535 327.339 113.125 325.753 113.026C324.167 112.927 322.577 113.142 321.074 113.657C319.571 114.173 318.185 114.979 316.993 116.031C315.802 117.082 314.83 118.358 314.131 119.785L314.127 119.793L229.947 292.027C228.542 294.912 228.338 298.236 229.381 301.271C230.423 304.306 232.626 306.804 235.507 308.217L459.948 417.914C462.833 419.319 466.158 419.523 469.192 418.48C472.227 417.438 474.725 415.235 476.138 412.354L560.318 240.121C560.933 238.868 561.325 237.517 561.476 236.13Z" fill="white"/>
<path d="M561.476 236.13C561.745 233.653 561.244 231.153 560.042 228.97C558.84 226.788 556.996 225.028 554.759 223.931L330.317 114.234C328.89 113.535 327.339 113.125 325.753 113.026C324.167 112.927 322.577 113.142 321.074 113.657C319.571 114.173 318.185 114.979 316.993 116.031C315.802 117.082 314.83 118.358 314.131 119.785L314.127 119.793L229.947 292.027C228.542 294.912 228.338 298.236 229.381 301.271C230.423 304.306 232.626 306.804 235.507 308.217L459.948 417.914C462.833 419.319 466.158 419.523 469.192 418.48C472.227 417.438 474.725 415.235 476.138 412.354L560.318 240.121C560.933 238.868 561.325 237.517 561.476 236.13ZM474.859 411.729C473.612 414.271 471.409 416.216 468.731 417.135C466.053 418.055 463.119 417.875 460.574 416.635L236.132 306.938C233.59 305.691 231.645 303.487 230.726 300.809C229.806 298.131 229.986 295.198 231.226 292.652L315.407 120.419C316.653 117.876 318.857 115.932 321.535 115.012C324.213 114.093 327.146 114.273 329.692 115.513L554.133 225.21C556.676 226.457 558.62 228.661 559.54 231.339C560.459 234.017 560.279 236.95 559.039 239.495L474.859 411.729Z" fill="#3F3D56"/>
<path d="M536.996 243.961L478.216 364.227C477.824 365.029 477.129 365.644 476.284 365.934C475.439 366.225 474.513 366.168 473.71 365.776L269.55 265.991C269.404 265.921 269.265 265.839 269.133 265.745C268.463 265.29 267.98 264.608 267.773 263.825C267.565 263.043 267.647 262.211 268.002 261.484L326.783 141.218C326.977 140.821 327.247 140.465 327.579 140.172C327.91 139.879 328.296 139.654 328.715 139.511C329.133 139.367 329.576 139.307 330.017 139.334C330.459 139.361 330.891 139.475 331.288 139.669L535.448 239.454C536.251 239.846 536.865 240.541 537.156 241.386C537.446 242.231 537.389 243.156 536.997 243.959L536.996 243.961Z" fill="#E6E6E6"/>
<path d="M357.759 237.854C374.088 237.854 387.325 224.616 387.325 208.287C387.325 191.958 374.088 178.72 357.759 178.72C341.429 178.72 328.192 191.958 328.192 208.287C328.192 224.616 341.429 237.854 357.759 237.854Z" fill="#5F00BA"/>
<path d="M401.05 330.86L270.737 267.169C270.573 267.091 270.416 266.998 270.269 266.892L384.078 190.259C384.779 189.778 385.596 189.492 386.444 189.43C387.292 189.367 388.141 189.531 388.905 189.905C389.669 190.278 390.32 190.847 390.792 191.555C391.263 192.262 391.539 193.082 391.59 193.931L397.938 285.788L398.244 290.185L401.05 330.86Z" fill="#3F3D56"/>
<path opacity="0.2" d="M401.05 330.86L356.558 309.114L393.905 288.064L396.594 286.548L397.938 285.789L398.244 290.185L401.05 330.86Z" fill="black"/>
<path d="M473.607 366.323L360.897 311.235L398.244 290.185L400.933 288.668L449.6 261.235C452.791 259.437 457.362 261.462 458.399 264.902C458.467 265.135 458.52 265.373 458.559 265.613L473.607 366.323Z" fill="#3F3D56"/>
<path d="M125.844 376.82L138.103 376.819L143.936 329.531L125.841 329.532L125.844 376.82Z" fill="#FFB8B8"/>
<path d="M122.716 372.817L146.86 372.816C148.881 372.816 150.882 373.214 152.749 373.987C154.616 374.761 156.312 375.894 157.741 377.323C159.17 378.752 160.303 380.448 161.076 382.314C161.85 384.181 162.248 386.182 162.248 388.203V388.703L122.717 388.704L122.716 372.817Z" fill="#2F2E41"/>
<path d="M30.551 369.014L43.253 371.498L58.881 323.688L40.135 320.021L30.551 369.014Z" fill="#FFB8B8"/>
<path d="M28.1228 364.233L53.1371 369.126L53.1381 369.126C55.2315 369.536 57.2238 370.354 59.0012 371.533C60.7785 372.713 62.3061 374.231 63.4968 376C64.6875 377.77 65.5178 379.757 65.9406 381.848C66.3633 383.939 66.37 386.093 65.9604 388.186L65.859 388.704L24.9032 380.693L28.1228 364.233Z" fill="#2F2E41"/>
<path d="M143.68 213.699C143.265 212.288 142.546 210.986 141.573 209.884C140.6 208.782 139.398 207.906 138.05 207.319C136.702 206.732 135.242 206.447 133.773 206.486C132.303 206.524 130.86 206.884 129.544 207.54L103.99 182.561L100.464 200.793L125.271 221.718C126.52 223.855 128.51 225.459 130.863 226.227C133.216 226.995 135.769 226.874 138.038 225.885C140.307 224.897 142.134 223.11 143.174 220.864C144.214 218.618 144.394 216.069 143.68 213.699Z" fill="#FFB8B8"/>
<path d="M48.871 85.1268C62.4356 85.1268 73.432 74.1305 73.432 60.5658C73.432 47.0011 62.4356 36.0048 48.871 36.0048C35.3063 36.0048 24.3099 47.0011 24.3099 60.5658C24.3099 74.1305 35.3063 85.1268 48.871 85.1268Z" fill="#FFB8B8"/>
<path d="M43.7135 85.5028C45.0184 86.0738 47.6908 75.6755 46.4937 73.5957C44.7135 70.5028 44.8187 70.525 43.6369 68.4788C42.4551 66.4325 42.1907 63.6316 43.7211 61.8311C45.2515 60.0307 48.793 60.2695 49.4915 62.5269C49.0422 58.2391 53.2834 54.7924 57.4845 53.8238C61.6856 52.8552 66.1169 53.4566 70.3412 52.5947C75.2436 51.5943 80.3443 47.4849 78.3884 42.094C78.0527 41.1964 77.5502 40.3705 76.9073 39.6599C74.6474 37.1189 71.4861 36.0339 68.3953 34.9849C61.9652 32.8024 55.3593 30.5925 48.5732 30.8335C42.9818 31.1258 37.5969 33.0418 33.0775 36.3469C28.5581 39.652 25.1002 44.2029 23.1269 49.4427C22.6593 50.7535 22.297 52.0996 22.0435 53.4681C19.7142 65.9923 26.9872 78.346 38.7997 83.1152L43.7135 85.5028Z" fill="#2F2E41"/>
<path d="M37.6831 220.427C37.0566 220.048 36.5546 219.494 36.2387 218.834C35.9229 218.174 35.807 217.435 35.9052 216.71L24.8222 161.809L13.5879 119.674C12.3545 115.057 12.7272 110.158 14.6444 105.78C16.5617 101.403 19.9097 97.8073 24.1394 95.583L31.5664 88.5557L47.7687 95.5361L55.4678 103.364C60.9898 106.053 65.8882 109.867 69.8481 114.562C73.808 119.257 76.7418 124.729 78.4609 130.625L90.8093 172.88L119.327 215.307C119.803 216.014 120.025 216.861 119.958 217.711C119.891 218.561 119.538 219.363 118.957 219.986C114.99 224.254 37.6831 220.427 37.6831 220.427Z" fill="#2F2E41"/>
<path d="M112.397 216.526L70.3457 187.387C64.6144 183.388 60.4651 177.507 58.6189 170.767L46.7989 127.607C46.3588 126.026 46.2402 124.373 46.45 122.745C46.6597 121.118 47.1936 119.549 48.02 118.131C49.1425 116.173 50.7944 114.572 52.7861 113.51C54.7777 112.449 57.0284 111.971 59.2794 112.132C61.5304 112.292 63.6906 113.084 65.5116 114.417C67.3327 115.75 68.7408 117.57 69.5742 119.667L87.1038 162.787L124.454 198.233C124.874 198.744 125.154 199.355 125.265 200.007C125.376 200.659 125.315 201.328 125.087 201.949L117.974 214.666C117.727 215.399 117.257 216.036 116.63 216.488C116.002 216.94 115.249 217.184 114.476 217.187C113.731 217.186 113.005 216.955 112.397 216.526Z" fill="#2F2E41"/>
<path d="M25.0364 361.695C24.6927 361.203 24.4725 360.634 24.3946 360.039C24.3167 359.443 24.3834 358.837 24.5889 358.272L44.0425 287.553L45.4806 218.258L110.967 213.767L111.285 213.745L131.009 249.494C137.184 260.671 140.965 273.011 142.109 285.729L148.609 356.959C148.707 357.927 148.422 358.895 147.814 359.655C147.206 360.415 146.325 360.906 145.358 361.023L125.613 362.901C124.662 363.017 123.703 362.757 122.941 362.175C122.179 361.594 121.674 360.738 121.534 359.79L113.516 287.407L84.6663 238.662L74.9823 289.98L54.9195 360.85C54.6571 361.557 54.1858 362.168 53.5682 362.601C52.9505 363.034 52.2157 363.27 51.4612 363.275L28.061 363.285C27.4653 363.288 26.8779 363.144 26.3505 362.867C25.8232 362.59 25.3719 362.188 25.0364 361.695Z" fill="#2F2E41"/>
<path d="M526.465 594.285H33C24.2509 594.275 15.863 590.795 9.67639 584.609C3.48983 578.422 0.00988299 570.034 0 561.285V290.285C0.00988299 281.536 3.48983 273.148 9.67639 266.962C15.863 260.775 24.2509 257.295 33 257.285H93.5027C101.712 257.278 109.628 260.338 115.698 265.865L181.309 312.716C185.587 316.625 191.173 318.79 196.968 318.785H529.529C533.903 318.785 538.233 319.655 542.268 321.344C546.304 323.032 549.963 325.506 553.033 328.622C556.103 331.737 558.524 335.432 560.153 339.492C561.783 343.551 562.589 347.894 562.525 352.268L559.461 561.768C559.299 570.424 555.756 578.673 549.589 584.75C543.422 590.827 535.122 594.25 526.465 594.285Z" fill="white"/>
<path d="M522.081 578.285H35.9194C31.6988 578.28 27.6524 576.602 24.668 573.617C21.6835 570.633 20.0048 566.586 20 562.366V286.935C20.0048 282.714 21.6835 278.668 24.668 275.683C27.6524 272.699 31.6988 271.02 35.9194 271.015C39.6525 271.019 43.2316 272.504 45.8713 275.144C48.511 277.784 49.9958 281.363 50 285.096V543.366C50.0045 547.321 51.5778 551.113 54.3748 553.91C57.1717 556.707 60.9639 558.281 64.9194 558.285H520.439C522.702 558.26 524.908 558.993 526.705 560.369C528.502 561.744 529.787 563.682 530.354 565.872C530.989 567.95 530.91 570.18 530.13 572.208C529.349 574.235 527.912 575.942 526.047 577.057C524.865 577.827 523.491 578.252 522.081 578.285Z" fill="#F2F2F2"/>
<path d="M283.424 446.013L282.144 444.733C281.879 444.484 281.723 444.141 281.711 443.777C281.7 443.414 281.832 443.061 282.081 442.796C282.101 442.774 282.122 442.753 282.144 442.733L293.374 431.492C293.497 431.361 293.645 431.255 293.809 431.181C293.973 431.107 294.15 431.066 294.329 431.06C294.509 431.054 294.688 431.083 294.857 431.147C295.025 431.21 295.179 431.306 295.311 431.429C295.333 431.449 295.354 431.471 295.374 431.492L306.604 442.723C306.736 442.849 306.841 443.001 306.913 443.168C306.986 443.335 307.025 443.516 307.029 443.698C307.032 443.881 306.999 444.062 306.932 444.232C306.865 444.402 306.766 444.557 306.639 444.688L306.604 444.723L305.324 446.003C305.198 446.134 305.046 446.239 304.879 446.312C304.711 446.385 304.531 446.424 304.349 446.427C304.166 446.43 303.985 446.397 303.815 446.33C303.645 446.264 303.49 446.164 303.359 446.037L303.324 446.003L296.684 439.003V455.612C296.686 455.794 296.651 455.973 296.583 456.141C296.515 456.309 296.414 456.462 296.287 456.591C296.16 456.72 296.009 456.823 295.842 456.894C295.675 456.964 295.496 457.001 295.314 457.002L295.304 457.003H293.454C293.086 457.003 292.732 456.856 292.471 456.595C292.211 456.335 292.064 455.981 292.064 455.613V439.023L285.424 446.023C285.167 446.287 284.815 446.437 284.447 446.442C284.078 446.447 283.723 446.305 283.459 446.047L283.424 446.013Z" fill="#5F00BA"/>
<path d="M294.354 421.283C298.862 421.283 303.268 422.619 307.016 425.123C310.764 427.628 313.685 431.187 315.41 435.351C317.134 439.516 317.586 444.098 316.706 448.519C315.827 452.94 313.657 457 310.469 460.188C307.282 463.375 303.221 465.545 298.8 466.425C294.38 467.304 289.797 466.853 285.633 465.128C281.469 463.403 277.909 460.482 275.405 456.734C272.901 452.986 271.564 448.58 271.564 444.073C271.57 438.03 273.972 432.236 278.245 427.963C282.518 423.691 288.312 421.288 294.354 421.283ZM294.354 418.283C289.254 418.283 284.267 419.795 280.026 422.629C275.785 425.463 272.479 429.491 270.527 434.203C268.575 438.916 268.065 444.101 269.06 449.104C270.055 454.107 272.511 458.702 276.118 462.309C279.725 465.916 284.32 468.372 289.323 469.367C294.326 470.362 299.511 469.851 304.224 467.899C308.936 465.947 312.964 462.642 315.798 458.401C318.632 454.16 320.144 449.173 320.144 444.073C320.144 437.233 317.427 430.673 312.591 425.836C307.754 421 301.194 418.283 294.354 418.283Z" fill="#3F3D56"/>
<path d="M526.465 594.285H33C24.2509 594.275 15.863 590.795 9.67639 584.609C3.48983 578.422 0.00988299 570.034 0 561.285V290.285C0.00988299 281.536 3.48983 273.148 9.67639 266.962C15.863 260.775 24.2509 257.295 33 257.285H93.5027C101.712 257.278 109.628 260.338 115.698 265.865L181.309 312.716C185.587 316.625 191.173 318.79 196.968 318.785H529.529C533.903 318.785 538.233 319.655 542.268 321.344C546.304 323.032 549.963 325.506 553.033 328.622C556.103 331.737 558.524 335.432 560.153 339.492C561.783 343.551 562.589 347.894 562.525 352.268L559.461 561.768C559.299 570.424 555.756 578.673 549.589 584.75C543.422 590.827 535.122 594.25 526.465 594.285ZM33 259.285C24.7812 259.295 16.9016 262.564 11.09 268.375C5.27841 274.187 2.00934 282.066 2 290.285V561.285C2.00934 569.504 5.27841 577.384 11.09 583.195C16.9016 589.007 24.7812 592.276 33 592.285H526.465C534.598 592.252 542.395 589.037 548.188 583.328C553.98 577.619 557.309 569.87 557.461 561.738L560.525 352.238C560.585 348.13 559.828 344.05 558.297 340.237C556.767 336.423 554.493 332.952 551.609 330.026C548.724 327.099 545.287 324.775 541.496 323.188C537.706 321.602 533.638 320.785 529.529 320.785H196.968C190.695 320.79 184.647 318.454 180.006 314.234L114.395 267.383C108.687 262.168 101.234 259.279 93.5027 259.285H33Z" fill="#3F3D56"/>
<path d="M746.625 608.553C754.595 589.883 760.215 569.563 757.555 549.453C756.643 542.634 754.658 536.002 751.675 529.803C749.271 524.749 746.167 520.06 742.455 515.873C741.171 514.396 739.41 513.417 737.478 513.106C735.546 512.795 733.567 513.173 731.885 514.173C731.625 514.323 731.365 514.483 731.125 514.653C729.823 515.57 728.796 516.825 728.155 518.283C728.031 518.562 727.927 518.849 727.845 519.143C727.477 520.371 727.379 521.663 727.555 522.933C728.957 533.282 728.653 543.792 726.655 554.043C726.145 556.653 725.521 559.24 724.785 561.803C723.13 559.738 721.371 557.758 719.515 555.873C714.701 550.995 709.15 546.905 703.065 543.753H703.055C703.025 543.733 703.005 543.723 702.975 543.703C695.595 539.943 685.755 541.503 680.005 544.063C679.625 544.223 679.265 544.403 678.915 544.573C675.915 546.113 674.425 547.883 675.705 549.043C675.995 549.293 676.285 549.553 676.555 549.813C685.272 557.872 692.413 567.482 697.615 578.153V578.163C699.682 582.411 701.424 586.811 702.825 591.323C704.755 597.553 706.355 604.463 710.125 609.543C710.51 610.078 710.928 610.588 711.375 611.073L745.055 610.803C745.135 610.763 745.205 610.733 745.285 610.693L746.625 610.743C746.575 610.503 746.515 610.263 746.455 610.023V610.003C746.425 609.873 746.385 609.733 746.355 609.613C746.325 609.513 746.305 609.423 746.285 609.343C746.345 609.193 746.405 609.053 746.475 608.903C746.525 608.783 746.575 608.673 746.625 608.553Z" fill="#F0F0F0"/>
<path d="M746.455 610.003C746.444 610.078 746.415 610.149 746.369 610.209C746.324 610.269 746.263 610.316 746.194 610.347C746.125 610.377 746.049 610.389 745.974 610.381C745.898 610.373 745.826 610.346 745.765 610.303C744.381 609.299 742.862 608.495 741.255 607.913C741.245 607.903 741.245 607.913 741.245 607.913C739.216 607.183 737.128 606.628 735.005 606.253C734.985 606.253 734.975 606.243 734.955 606.243C734.095 606.073 733.235 605.923 732.375 605.763C728.195 604.993 723.945 604.063 720.325 601.683C718.851 600.77 717.588 599.556 716.618 598.121C715.647 596.685 714.992 595.06 714.695 593.353C714.165 590.003 714.835 586.633 715.115 583.293C715.135 583.053 715.155 582.803 715.165 582.563C715.185 582.253 715.195 581.953 715.195 581.653C715.298 578.621 714.688 575.607 713.415 572.853C711.779 569.556 709.633 566.539 707.055 563.913C705.725 562.483 704.338 561.106 702.895 559.783H702.885C702.825 559.723 702.775 559.673 702.715 559.623C702.715 559.613 702.705 559.603 702.695 559.593C696.524 553.986 689.525 549.365 681.945 545.893C681.675 545.773 681.395 545.643 681.115 545.523C680.385 545.193 679.655 544.883 678.915 544.573C679.265 544.403 679.625 544.223 680.005 544.063C688.459 547.639 696.262 552.593 703.095 558.723C703.325 558.923 703.555 559.133 703.775 559.343C705.505 560.943 707.151 562.62 708.715 564.373C711.215 567.066 713.24 570.163 714.705 573.533C715.779 576.26 716.253 579.186 716.095 582.113C716.075 582.673 716.035 583.233 715.985 583.803C715.675 587.173 714.985 590.653 715.755 594.023C716.635 597.863 719.615 600.543 723.075 602.183C725.365 603.204 727.768 603.949 730.235 604.403C735.335 605.473 740.605 605.993 745.065 608.733H745.075C745.145 608.783 745.215 608.823 745.275 608.863C745.285 608.863 745.285 608.863 745.285 608.873C745.607 609.064 745.917 609.275 746.215 609.503C746.235 609.513 746.255 609.533 746.275 609.543C746.303 609.564 746.33 609.587 746.355 609.613C746.401 609.665 746.434 609.728 746.451 609.796C746.469 609.864 746.47 609.935 746.455 610.003Z" fill="white"/>
<path d="M703.512 559.686C705.329 557.432 706.286 554.606 706.212 551.712C706.138 548.818 705.037 546.044 703.107 543.887C702.715 543.451 702.02 544.04 702.413 544.476C704.214 546.482 705.239 549.066 705.302 551.761C705.366 554.456 704.464 557.085 702.759 559.173C702.389 559.628 703.144 560.137 703.512 559.686Z" fill="white"/>
<path d="M715.484 581.622C709.606 582.305 703.686 580.748 698.905 577.26C698.431 576.914 697.919 577.667 698.392 578.013C703.374 581.633 709.538 583.241 715.654 582.517C716.237 582.447 716.064 581.553 715.484 581.622Z" fill="white"/>
<path d="M682.005 545.783C681.985 545.823 681.965 545.853 681.945 545.893C681.394 546.906 680.624 547.783 679.692 548.461C678.759 549.139 677.688 549.601 676.555 549.813C676.285 549.553 675.995 549.293 675.705 549.043C675.75 549.014 675.801 548.997 675.855 548.993C676.944 548.873 677.989 548.496 678.903 547.893C679.818 547.289 680.576 546.477 681.115 545.523C681.165 545.443 681.215 545.353 681.255 545.273C681.288 545.223 681.331 545.181 681.38 545.148C681.43 545.115 681.486 545.093 681.545 545.081C681.603 545.07 681.663 545.071 681.722 545.083C681.78 545.095 681.836 545.119 681.885 545.153C681.981 545.223 682.047 545.327 682.069 545.444C682.091 545.561 682.068 545.682 682.005 545.783Z" fill="white"/>
<path d="M746.625 608.553C746.629 608.619 746.617 608.685 746.591 608.746C746.565 608.806 746.525 608.86 746.475 608.903C746.396 608.962 746.303 609 746.205 609.013C746.105 609.034 746.002 609.015 745.916 608.961C745.83 608.907 745.769 608.822 745.745 608.723C744.365 604.083 740.985 600.523 737.785 597.033C734.905 593.903 732.075 590.603 730.625 586.533C729.997 584.916 729.718 583.184 729.808 581.452C729.897 579.72 730.353 578.026 731.145 576.483C731.643 575.56 732.222 574.683 732.875 573.863C734.305 572.043 736.005 570.423 737.535 568.703C737.695 568.523 737.855 568.333 738.005 568.153C738.215 567.923 738.405 567.683 738.585 567.443C740.492 565.084 741.818 562.309 742.455 559.343C743.138 555.726 743.242 552.023 742.765 548.373C742.565 546.433 742.288 544.506 741.935 542.593C741.915 542.503 741.905 542.423 741.885 542.343C740.341 534.137 737.535 526.219 733.565 518.873C733.415 518.603 733.275 518.333 733.125 518.073C732.485 516.913 731.825 515.773 731.125 514.653C731.365 514.483 731.625 514.323 731.885 514.173C734.178 517.886 736.174 521.775 737.855 525.803C740.027 530.971 741.659 536.349 742.725 541.853C742.795 542.153 742.845 542.463 742.895 542.763C743.315 545.073 743.625 547.413 743.815 549.743C744.19 553.398 743.94 557.091 743.075 560.663C742.29 563.496 740.902 566.127 739.005 568.373C738.665 568.803 738.305 569.223 737.925 569.633C736.405 571.293 734.725 572.903 733.355 574.713C732.655 575.622 732.061 576.609 731.585 577.653C729.975 581.253 730.735 585.193 732.515 588.573C735.735 594.723 741.875 598.913 745.145 604.943C745.749 606.054 746.238 607.223 746.605 608.433C746.616 608.472 746.623 608.512 746.625 608.553Z" fill="white"/>
<path d="M742.481 542.868C745.289 542.163 747.754 540.483 749.438 538.127C751.121 535.772 751.912 532.895 751.67 530.01C751.619 529.426 750.71 529.478 750.761 530.063C750.991 532.749 750.254 535.428 748.682 537.619C747.11 539.809 744.807 541.365 742.189 542.006C741.62 542.146 741.915 543.008 742.481 542.868Z" fill="white"/>
<path d="M738.833 567.592C733.728 564.598 729.939 559.79 728.221 554.127C728.052 553.566 727.189 553.859 727.359 554.419C729.158 560.309 733.111 565.304 738.43 568.408C738.937 568.703 739.338 567.885 738.833 567.592Z" fill="white"/>
<path d="M733.675 518.823C733.635 518.843 733.605 518.853 733.565 518.873C731.764 519.695 729.715 519.791 727.845 519.143C727.927 518.849 728.031 518.562 728.155 518.283C729.779 518.84 731.553 518.765 733.125 518.073C733.215 518.043 733.295 518.003 733.385 517.963C733.499 517.924 733.624 517.931 733.732 517.983C733.841 518.036 733.924 518.129 733.965 518.243C733.997 518.358 733.986 518.482 733.932 518.589C733.879 518.696 733.787 518.78 733.675 518.823Z" fill="white"/>
<path d="M777.182 612.743H429.194C429.037 612.743 428.882 612.713 428.737 612.653C428.593 612.593 428.461 612.506 428.35 612.395C428.239 612.284 428.151 612.153 428.091 612.008C428.031 611.864 428 611.709 428 611.552C428 611.395 428.031 611.24 428.091 611.095C428.151 610.951 428.239 610.819 428.35 610.709C428.461 610.598 428.593 610.511 428.737 610.451C428.882 610.391 429.037 610.361 429.194 610.361H777.182C777.339 610.361 777.494 610.391 777.639 610.451C777.784 610.511 777.915 610.598 778.026 610.709C778.137 610.819 778.225 610.951 778.285 611.095C778.345 611.24 778.376 611.395 778.376 611.552C778.376 611.709 778.345 611.864 778.285 612.008C778.225 612.153 778.137 612.284 778.026 612.395C777.915 612.506 777.784 612.593 777.639 612.653C777.494 612.713 777.339 612.743 777.182 612.743Z" fill="#CCCCCC"/>
</g>
<defs>
<clipPath id="clip0_3_2">
<rect width="777.697" height="613.285" fill="white"/>
</clipPath>
</defs>
</svg>
